<mxfile host="app.diagrams.net" modified="2024-02-22T23:29:36.769Z" agent="Mozilla/5.0 (Windows NT 10.0; Win64; x64) AppleWebKit/537.36 (KHTML, like Gecko) Chrome/121.0.0.0 Safari/537.36" etag="4jtcAchK3SspY-MCnRbP" version="23.1.5" type="device">
  <diagram id="C5RBs43oDa-KdzZeNtuy" name="Page-1">
    <mxGraphModel dx="1434" dy="780" grid="1" gridSize="10" guides="1" tooltips="1" connect="1" arrows="1" fold="1" page="1" pageScale="1" pageWidth="827" pageHeight="1169" math="0" shadow="0">
      <root>
        <mxCell id="WIyWlLk6GJQsqaUBKTNV-0" />
        <mxCell id="WIyWlLk6GJQsqaUBKTNV-1" parent="WIyWlLk6GJQsqaUBKTNV-0" />
        <mxCell id="hs5T8lCZRrPNbEUd3X_b-0" value="&lt;h1 style=&quot;font-size: 10px;&quot;&gt;&lt;div style=&quot;background-color: rgb(255, 255, 255); padding: 0px 0px 0px 2px; font-size: 10px;&quot;&gt;&lt;div style=&quot;font-size: 10px;&quot;&gt;&lt;p style=&quot;font-family: Consolas; font-size: 10px; margin: 0px;&quot;&gt;&lt;span style=&quot;font-size: 10px;&quot;&gt;&amp;nbsp;&amp;nbsp;&amp;nbsp;&amp;nbsp;&lt;/span&gt;&lt;span style=&quot;font-size: 10px;&quot;&gt;&amp;nbsp;&amp;nbsp;&amp;nbsp;&amp;nbsp;&lt;/span&gt;int &lt;span style=&quot;color: rgb(106, 62, 62); font-size: 10px;&quot;&gt;point&lt;/span&gt; = &lt;span style=&quot;color: rgb(106, 62, 62); font-size: 10px;&quot;&gt;scan&lt;/span&gt;.nextInt();&lt;/p&gt;&lt;p style=&quot;font-family: Consolas; font-size: 10px; margin: 0px;&quot;&gt;&lt;span style=&quot;font-size: 10px;&quot;&gt;&amp;nbsp;&amp;nbsp;&amp;nbsp;&amp;nbsp;&lt;/span&gt;&lt;span style=&quot;font-size: 10px;&quot;&gt;&amp;nbsp;&amp;nbsp;&amp;nbsp;&amp;nbsp;&lt;/span&gt;&lt;span style=&quot;color: rgb(127, 0, 85); font-size: 10px;&quot;&gt;char&lt;/span&gt; &lt;span style=&quot;color: rgb(106, 62, 62); font-size: 10px;&quot;&gt;result&lt;/span&gt;;&lt;/p&gt;&lt;p style=&quot;font-family: Consolas; font-size: 10px; margin: 0px;&quot;&gt;&lt;span style=&quot;font-weight: normal; font-size: 10px;&quot;&gt;&amp;nbsp;&amp;nbsp;&amp;nbsp;&amp;nbsp;&lt;/span&gt;&lt;span style=&quot;font-weight: normal; font-size: 10px;&quot;&gt;&amp;nbsp;&amp;nbsp;&amp;nbsp;&amp;nbsp;&lt;/span&gt;&lt;span style=&quot;font-weight: normal; color: rgb(127, 0, 85); font-size: 10px;&quot;&gt;if&lt;/span&gt;&lt;span style=&quot;font-weight: normal; font-size: 10px;&quot;&gt;(&lt;/span&gt;&lt;span style=&quot;font-weight: normal; color: rgb(106, 62, 62); font-size: 10px;&quot;&gt;point&lt;/span&gt;&lt;span style=&quot;font-weight: normal; font-size: 10px;&quot;&gt;&amp;gt;=90) {&lt;/span&gt;&lt;br style=&quot;font-size: 10px;&quot;&gt;&lt;/p&gt;&lt;p style=&quot;font-family: Consolas; font-size: 10px; margin: 0px;&quot;&gt;&lt;span style=&quot;font-size: 10px;&quot;&gt;&amp;nbsp;&amp;nbsp;&amp;nbsp;&amp;nbsp;&lt;/span&gt;&lt;span style=&quot;font-size: 10px;&quot;&gt;&amp;nbsp;&amp;nbsp;&amp;nbsp;&amp;nbsp;&lt;/span&gt;&lt;span style=&quot;font-size: 10px;&quot;&gt;&amp;nbsp;&amp;nbsp;&amp;nbsp;&amp;nbsp;&lt;/span&gt;&lt;span style=&quot;color: rgb(106, 62, 62); font-size: 10px;&quot;&gt;result&lt;/span&gt; = &lt;span style=&quot;color: rgb(42, 0, 255); font-size: 10px;&quot;&gt;&#39;A&#39;&lt;/span&gt;;&lt;/p&gt;&lt;p style=&quot;font-family: Consolas; font-size: 10px; margin: 0px;&quot;&gt;&lt;span style=&quot;font-size: 10px;&quot;&gt;&amp;nbsp;&amp;nbsp;&amp;nbsp;&amp;nbsp;&lt;/span&gt;&lt;span style=&quot;font-size: 10px;&quot;&gt;&amp;nbsp;&amp;nbsp;&amp;nbsp;&amp;nbsp;&lt;/span&gt;} &lt;span style=&quot;color: rgb(127, 0, 85); font-size: 10px;&quot;&gt;else&lt;/span&gt; &lt;span style=&quot;color: rgb(127, 0, 85); font-size: 10px;&quot;&gt;if&lt;/span&gt;(&lt;span style=&quot;color: rgb(106, 62, 62); font-size: 10px;&quot;&gt;point&lt;/span&gt;&amp;gt;=80) {&lt;/p&gt;&lt;p style=&quot;font-family: Consolas; font-size: 10px; margin: 0px;&quot;&gt;&lt;span style=&quot;font-size: 10px;&quot;&gt;&amp;nbsp;&amp;nbsp;&amp;nbsp;&amp;nbsp;&lt;/span&gt;&lt;span style=&quot;font-size: 10px;&quot;&gt;&amp;nbsp;&amp;nbsp;&amp;nbsp;&amp;nbsp;&lt;/span&gt;&lt;span style=&quot;font-size: 10px;&quot;&gt;&amp;nbsp;&amp;nbsp;&amp;nbsp;&amp;nbsp;&lt;/span&gt;&lt;span style=&quot;color: rgb(106, 62, 62); font-size: 10px;&quot;&gt;result&lt;/span&gt; = &lt;span style=&quot;color: rgb(42, 0, 255); font-size: 10px;&quot;&gt;&#39;B&#39;&lt;/span&gt;;&lt;/p&gt;&lt;p style=&quot;font-family: Consolas; font-size: 10px; margin: 0px;&quot;&gt;&lt;span style=&quot;font-size: 10px;&quot;&gt;&amp;nbsp;&amp;nbsp;&amp;nbsp;&amp;nbsp;&lt;/span&gt;&lt;span style=&quot;font-size: 10px;&quot;&gt;&amp;nbsp;&amp;nbsp;&amp;nbsp;&amp;nbsp;&lt;/span&gt;} &lt;span style=&quot;color: rgb(127, 0, 85); font-size: 10px;&quot;&gt;else&lt;/span&gt; &lt;span style=&quot;color: rgb(127, 0, 85); font-size: 10px;&quot;&gt;if&lt;/span&gt;(&lt;span style=&quot;color: rgb(106, 62, 62); font-size: 10px;&quot;&gt;point&lt;/span&gt;&amp;gt;=70) {&lt;/p&gt;&lt;p style=&quot;font-family: Consolas; font-size: 10px; margin: 0px;&quot;&gt;&lt;span style=&quot;font-size: 10px;&quot;&gt;&amp;nbsp;&amp;nbsp;&amp;nbsp;&amp;nbsp;&lt;/span&gt;&lt;span style=&quot;font-size: 10px;&quot;&gt;&amp;nbsp;&amp;nbsp;&amp;nbsp;&amp;nbsp;&lt;/span&gt;&lt;span style=&quot;font-size: 10px;&quot;&gt;&amp;nbsp;&amp;nbsp;&amp;nbsp;&amp;nbsp;&lt;/span&gt;&lt;span style=&quot;color: rgb(106, 62, 62); font-size: 10px;&quot;&gt;result&lt;/span&gt; = &lt;span style=&quot;color: rgb(42, 0, 255); font-size: 10px;&quot;&gt;&#39;C&#39;&lt;/span&gt;;&lt;/p&gt;&lt;p style=&quot;font-family: Consolas; font-size: 10px; margin: 0px;&quot;&gt;&lt;span style=&quot;font-size: 10px;&quot;&gt;&amp;nbsp;&amp;nbsp;&amp;nbsp;&amp;nbsp;&lt;/span&gt;&lt;span style=&quot;font-size: 10px;&quot;&gt;&amp;nbsp;&amp;nbsp;&amp;nbsp;&amp;nbsp;&lt;/span&gt;} &lt;span style=&quot;color: rgb(127, 0, 85); font-size: 10px;&quot;&gt;else&lt;/span&gt; &lt;span style=&quot;color: rgb(127, 0, 85); font-size: 10px;&quot;&gt;if&lt;/span&gt;(&lt;span style=&quot;color: rgb(106, 62, 62); font-size: 10px;&quot;&gt;point&lt;/span&gt;&amp;gt;=60) {&lt;/p&gt;&lt;p style=&quot;font-family: Consolas; font-size: 10px; margin: 0px;&quot;&gt;&lt;span style=&quot;font-size: 10px;&quot;&gt;&amp;nbsp;&amp;nbsp;&amp;nbsp;&amp;nbsp;&lt;/span&gt;&lt;span style=&quot;font-size: 10px;&quot;&gt;&amp;nbsp;&amp;nbsp;&amp;nbsp;&amp;nbsp;&lt;/span&gt;&lt;span style=&quot;font-size: 10px;&quot;&gt;&amp;nbsp;&amp;nbsp;&amp;nbsp;&amp;nbsp;&lt;/span&gt;&lt;span style=&quot;color: rgb(106, 62, 62); font-size: 10px;&quot;&gt;result&lt;/span&gt; = &lt;span style=&quot;color: rgb(42, 0, 255); font-size: 10px;&quot;&gt;&#39;D&#39;&lt;/span&gt;;&lt;/p&gt;&lt;p style=&quot;font-family: Consolas; font-size: 10px; margin: 0px;&quot;&gt;&lt;span style=&quot;font-size: 10px;&quot;&gt;&amp;nbsp;&amp;nbsp;&amp;nbsp;&amp;nbsp;&lt;/span&gt;&lt;span style=&quot;font-size: 10px;&quot;&gt;&amp;nbsp;&amp;nbsp;&amp;nbsp;&amp;nbsp;&lt;/span&gt;} &lt;span style=&quot;color: rgb(127, 0, 85); font-size: 10px;&quot;&gt;else&lt;/span&gt; {&lt;/p&gt;&lt;p style=&quot;font-family: Consolas; font-size: 10px; margin: 0px;&quot;&gt;&lt;span style=&quot;font-size: 10px;&quot;&gt;&amp;nbsp;&amp;nbsp;&amp;nbsp;&amp;nbsp;&lt;/span&gt;&lt;span style=&quot;font-size: 10px;&quot;&gt;&amp;nbsp;&amp;nbsp;&amp;nbsp;&amp;nbsp;&lt;/span&gt;&lt;span style=&quot;font-size: 10px;&quot;&gt;&amp;nbsp;&amp;nbsp;&amp;nbsp;&amp;nbsp;&lt;/span&gt;&lt;span style=&quot;color: rgb(106, 62, 62); font-size: 10px;&quot;&gt;result&lt;/span&gt; = &lt;span style=&quot;color: rgb(42, 0, 255); font-size: 10px;&quot;&gt;&#39;F&#39;&lt;/span&gt;;&lt;/p&gt;&lt;p style=&quot;font-family: Consolas; font-size: 10px; margin: 0px;&quot;&gt;&lt;span style=&quot;font-size: 10px;&quot;&gt;&amp;nbsp;&amp;nbsp;&amp;nbsp;&amp;nbsp;&lt;/span&gt;&lt;span style=&quot;font-size: 10px;&quot;&gt;&amp;nbsp;&amp;nbsp;&amp;nbsp;&amp;nbsp;&lt;/span&gt;}&lt;/p&gt;&lt;p style=&quot;margin: 0px; font-size: 10px;&quot;&gt;&lt;font face=&quot;Consolas&quot; style=&quot;font-size: 10px;&quot;&gt;&lt;span style=&quot;white-space: pre;&quot;&gt;&#x9;&lt;/span&gt;System.out.println(&quot;당신의 학점은 &quot;+result+&quot;입니다.&quot;);&lt;span style=&quot;padding: 0px 0px 0px 2px; font-size: 10px;&quot;&gt;&lt;/span&gt;&lt;span style=&quot;font-size: 10px;&quot;&gt;&lt;/span&gt;&lt;/font&gt;&lt;br style=&quot;font-size: 10px;&quot;&gt;&lt;/p&gt;&lt;/div&gt;&lt;/div&gt;&lt;/h1&gt;" style="text;html=1;spacing=5;spacingTop=-20;whiteSpace=wrap;overflow=hidden;rounded=0;fontSize=10;" parent="WIyWlLk6GJQsqaUBKTNV-1" vertex="1">
          <mxGeometry x="10" y="20" width="350" height="170" as="geometry" />
        </mxCell>
        <mxCell id="hs5T8lCZRrPNbEUd3X_b-1" value="학점 계산" style="rounded=1;whiteSpace=wrap;html=1;arcSize=50;" parent="WIyWlLk6GJQsqaUBKTNV-1" vertex="1">
          <mxGeometry x="530" y="40" width="120" height="30" as="geometry" />
        </mxCell>
        <mxCell id="hs5T8lCZRrPNbEUd3X_b-18" style="edgeStyle=orthogonalEdgeStyle;rounded=0;orthogonalLoop=1;jettySize=auto;html=1;exitX=0.5;exitY=1;exitDx=0;exitDy=0;entryX=0.5;entryY=0;entryDx=0;entryDy=0;" parent="WIyWlLk6GJQsqaUBKTNV-1" source="hs5T8lCZRrPNbEUd3X_b-3" target="hs5T8lCZRrPNbEUd3X_b-4" edge="1">
          <mxGeometry relative="1" as="geometry" />
        </mxCell>
        <mxCell id="hs5T8lCZRrPNbEUd3X_b-3" value="int point&lt;br&gt;char result" style="shape=hexagon;perimeter=hexagonPerimeter2;whiteSpace=wrap;html=1;fixedSize=1;" parent="WIyWlLk6GJQsqaUBKTNV-1" vertex="1">
          <mxGeometry x="532" y="92" width="120" height="30" as="geometry" />
        </mxCell>
        <mxCell id="hs5T8lCZRrPNbEUd3X_b-19" style="edgeStyle=orthogonalEdgeStyle;rounded=0;orthogonalLoop=1;jettySize=auto;html=1;exitX=0.5;exitY=1;exitDx=0;exitDy=0;entryX=0.5;entryY=0;entryDx=0;entryDy=0;" parent="WIyWlLk6GJQsqaUBKTNV-1" source="hs5T8lCZRrPNbEUd3X_b-4" target="hs5T8lCZRrPNbEUd3X_b-5" edge="1">
          <mxGeometry relative="1" as="geometry" />
        </mxCell>
        <mxCell id="hs5T8lCZRrPNbEUd3X_b-4" value="point =scan.nextInt()" style="shape=parallelogram;perimeter=parallelogramPerimeter;whiteSpace=wrap;html=1;fixedSize=1;" parent="WIyWlLk6GJQsqaUBKTNV-1" vertex="1">
          <mxGeometry x="510" y="144" width="160" height="35" as="geometry" />
        </mxCell>
        <mxCell id="hs5T8lCZRrPNbEUd3X_b-20" style="edgeStyle=orthogonalEdgeStyle;rounded=0;orthogonalLoop=1;jettySize=auto;html=1;exitX=1;exitY=0.5;exitDx=0;exitDy=0;entryX=0;entryY=0.5;entryDx=0;entryDy=0;" parent="WIyWlLk6GJQsqaUBKTNV-1" source="hs5T8lCZRrPNbEUd3X_b-5" target="hs5T8lCZRrPNbEUd3X_b-10" edge="1">
          <mxGeometry relative="1" as="geometry" />
        </mxCell>
        <mxCell id="hs5T8lCZRrPNbEUd3X_b-22" style="edgeStyle=orthogonalEdgeStyle;rounded=0;orthogonalLoop=1;jettySize=auto;html=1;exitX=0.5;exitY=1;exitDx=0;exitDy=0;entryX=0.5;entryY=0;entryDx=0;entryDy=0;" parent="WIyWlLk6GJQsqaUBKTNV-1" source="hs5T8lCZRrPNbEUd3X_b-5" target="hs5T8lCZRrPNbEUd3X_b-6" edge="1">
          <mxGeometry relative="1" as="geometry" />
        </mxCell>
        <mxCell id="hs5T8lCZRrPNbEUd3X_b-5" value="point&amp;gt;=90" style="rhombus;whiteSpace=wrap;html=1;" parent="WIyWlLk6GJQsqaUBKTNV-1" vertex="1">
          <mxGeometry x="534" y="200" width="110" height="40" as="geometry" />
        </mxCell>
        <mxCell id="hs5T8lCZRrPNbEUd3X_b-23" style="edgeStyle=orthogonalEdgeStyle;rounded=0;orthogonalLoop=1;jettySize=auto;html=1;exitX=0.5;exitY=1;exitDx=0;exitDy=0;entryX=0.5;entryY=0;entryDx=0;entryDy=0;" parent="WIyWlLk6GJQsqaUBKTNV-1" source="hs5T8lCZRrPNbEUd3X_b-6" target="hs5T8lCZRrPNbEUd3X_b-7" edge="1">
          <mxGeometry relative="1" as="geometry" />
        </mxCell>
        <mxCell id="hs5T8lCZRrPNbEUd3X_b-36" style="edgeStyle=orthogonalEdgeStyle;rounded=0;orthogonalLoop=1;jettySize=auto;html=1;exitX=1;exitY=0.5;exitDx=0;exitDy=0;entryX=0;entryY=0.5;entryDx=0;entryDy=0;" parent="WIyWlLk6GJQsqaUBKTNV-1" source="hs5T8lCZRrPNbEUd3X_b-6" target="hs5T8lCZRrPNbEUd3X_b-11" edge="1">
          <mxGeometry relative="1" as="geometry" />
        </mxCell>
        <mxCell id="hs5T8lCZRrPNbEUd3X_b-6" value="point&amp;gt;=80" style="rhombus;whiteSpace=wrap;html=1;" parent="WIyWlLk6GJQsqaUBKTNV-1" vertex="1">
          <mxGeometry x="534" y="260" width="110" height="40" as="geometry" />
        </mxCell>
        <mxCell id="hs5T8lCZRrPNbEUd3X_b-37" style="edgeStyle=orthogonalEdgeStyle;rounded=0;orthogonalLoop=1;jettySize=auto;html=1;exitX=1;exitY=0.5;exitDx=0;exitDy=0;entryX=0;entryY=0.5;entryDx=0;entryDy=0;" parent="WIyWlLk6GJQsqaUBKTNV-1" source="hs5T8lCZRrPNbEUd3X_b-7" target="hs5T8lCZRrPNbEUd3X_b-12" edge="1">
          <mxGeometry relative="1" as="geometry" />
        </mxCell>
        <mxCell id="hs5T8lCZRrPNbEUd3X_b-7" value="point&amp;gt;=70" style="rhombus;whiteSpace=wrap;html=1;" parent="WIyWlLk6GJQsqaUBKTNV-1" vertex="1">
          <mxGeometry x="534" y="320" width="110" height="40" as="geometry" />
        </mxCell>
        <mxCell id="hs5T8lCZRrPNbEUd3X_b-25" style="edgeStyle=orthogonalEdgeStyle;rounded=0;orthogonalLoop=1;jettySize=auto;html=1;exitX=0.5;exitY=1;exitDx=0;exitDy=0;entryX=0.5;entryY=0;entryDx=0;entryDy=0;" parent="WIyWlLk6GJQsqaUBKTNV-1" source="hs5T8lCZRrPNbEUd3X_b-8" target="hs5T8lCZRrPNbEUd3X_b-14" edge="1">
          <mxGeometry relative="1" as="geometry" />
        </mxCell>
        <mxCell id="hs5T8lCZRrPNbEUd3X_b-38" style="edgeStyle=orthogonalEdgeStyle;rounded=0;orthogonalLoop=1;jettySize=auto;html=1;exitX=1;exitY=0.5;exitDx=0;exitDy=0;entryX=0;entryY=0.5;entryDx=0;entryDy=0;" parent="WIyWlLk6GJQsqaUBKTNV-1" source="hs5T8lCZRrPNbEUd3X_b-8" target="hs5T8lCZRrPNbEUd3X_b-13" edge="1">
          <mxGeometry relative="1" as="geometry" />
        </mxCell>
        <mxCell id="hs5T8lCZRrPNbEUd3X_b-8" value="point&amp;gt;=60" style="rhombus;whiteSpace=wrap;html=1;" parent="WIyWlLk6GJQsqaUBKTNV-1" vertex="1">
          <mxGeometry x="530" y="380" width="110" height="40" as="geometry" />
        </mxCell>
        <mxCell id="hs5T8lCZRrPNbEUd3X_b-10" value="result=&#39;A&#39;" style="rounded=0;whiteSpace=wrap;html=1;" parent="WIyWlLk6GJQsqaUBKTNV-1" vertex="1">
          <mxGeometry x="680" y="205" width="120" height="30" as="geometry" />
        </mxCell>
        <mxCell id="hs5T8lCZRrPNbEUd3X_b-11" value="result=&#39;B&#39;" style="rounded=0;whiteSpace=wrap;html=1;" parent="WIyWlLk6GJQsqaUBKTNV-1" vertex="1">
          <mxGeometry x="680" y="265" width="100" height="30" as="geometry" />
        </mxCell>
        <mxCell id="hs5T8lCZRrPNbEUd3X_b-12" value="result=&#39;C&#39;" style="rounded=0;whiteSpace=wrap;html=1;" parent="WIyWlLk6GJQsqaUBKTNV-1" vertex="1">
          <mxGeometry x="680" y="325" width="90" height="30" as="geometry" />
        </mxCell>
        <mxCell id="hs5T8lCZRrPNbEUd3X_b-13" value="result=&#39;D&#39;" style="rounded=0;whiteSpace=wrap;html=1;" parent="WIyWlLk6GJQsqaUBKTNV-1" vertex="1">
          <mxGeometry x="680" y="386" width="70" height="30" as="geometry" />
        </mxCell>
        <mxCell id="hs5T8lCZRrPNbEUd3X_b-39" style="edgeStyle=orthogonalEdgeStyle;rounded=0;orthogonalLoop=1;jettySize=auto;html=1;exitX=0.5;exitY=1;exitDx=0;exitDy=0;entryX=0.5;entryY=0;entryDx=0;entryDy=0;" parent="WIyWlLk6GJQsqaUBKTNV-1" source="hs5T8lCZRrPNbEUd3X_b-14" target="hs5T8lCZRrPNbEUd3X_b-15" edge="1">
          <mxGeometry relative="1" as="geometry" />
        </mxCell>
        <mxCell id="hs5T8lCZRrPNbEUd3X_b-14" value="result=&#39;F&#39;" style="rounded=0;whiteSpace=wrap;html=1;" parent="WIyWlLk6GJQsqaUBKTNV-1" vertex="1">
          <mxGeometry x="526" y="450" width="120" height="30" as="geometry" />
        </mxCell>
        <mxCell id="hs5T8lCZRrPNbEUd3X_b-15" value="result" style="shape=document;whiteSpace=wrap;html=1;boundedLbl=1;" parent="WIyWlLk6GJQsqaUBKTNV-1" vertex="1">
          <mxGeometry x="526" y="515" width="120" height="50" as="geometry" />
        </mxCell>
        <mxCell id="hs5T8lCZRrPNbEUd3X_b-16" value="종료" style="rounded=1;whiteSpace=wrap;html=1;arcSize=50;" parent="WIyWlLk6GJQsqaUBKTNV-1" vertex="1">
          <mxGeometry x="525" y="599" width="120" height="30" as="geometry" />
        </mxCell>
        <mxCell id="hs5T8lCZRrPNbEUd3X_b-17" style="edgeStyle=orthogonalEdgeStyle;rounded=0;orthogonalLoop=1;jettySize=auto;html=1;exitX=0.5;exitY=1;exitDx=0;exitDy=0;entryX=0.466;entryY=0.035;entryDx=0;entryDy=0;entryPerimeter=0;" parent="WIyWlLk6GJQsqaUBKTNV-1" source="hs5T8lCZRrPNbEUd3X_b-1" target="hs5T8lCZRrPNbEUd3X_b-3" edge="1">
          <mxGeometry relative="1" as="geometry" />
        </mxCell>
        <mxCell id="hs5T8lCZRrPNbEUd3X_b-24" style="edgeStyle=orthogonalEdgeStyle;rounded=0;orthogonalLoop=1;jettySize=auto;html=1;exitX=0.5;exitY=1;exitDx=0;exitDy=0;entryX=0.544;entryY=0.008;entryDx=0;entryDy=0;entryPerimeter=0;" parent="WIyWlLk6GJQsqaUBKTNV-1" source="hs5T8lCZRrPNbEUd3X_b-7" target="hs5T8lCZRrPNbEUd3X_b-8" edge="1">
          <mxGeometry relative="1" as="geometry" />
        </mxCell>
        <mxCell id="hs5T8lCZRrPNbEUd3X_b-29" value="" style="ellipse;whiteSpace=wrap;html=1;aspect=fixed;" parent="WIyWlLk6GJQsqaUBKTNV-1" vertex="1">
          <mxGeometry x="581" y="491" width="10" height="10" as="geometry" />
        </mxCell>
        <mxCell id="hs5T8lCZRrPNbEUd3X_b-31" value="" style="endArrow=none;html=1;rounded=0;entryX=0.925;entryY=0.976;entryDx=0;entryDy=0;entryPerimeter=0;" parent="WIyWlLk6GJQsqaUBKTNV-1" target="hs5T8lCZRrPNbEUd3X_b-10" edge="1">
          <mxGeometry width="50" height="50" relative="1" as="geometry">
            <mxPoint x="790" y="490" as="sourcePoint" />
            <mxPoint x="810" y="275" as="targetPoint" />
          </mxGeometry>
        </mxCell>
        <mxCell id="hs5T8lCZRrPNbEUd3X_b-32" value="" style="endArrow=none;html=1;rounded=0;entryX=0.94;entryY=0.996;entryDx=0;entryDy=0;entryPerimeter=0;" parent="WIyWlLk6GJQsqaUBKTNV-1" target="hs5T8lCZRrPNbEUd3X_b-11" edge="1">
          <mxGeometry width="50" height="50" relative="1" as="geometry">
            <mxPoint x="774" y="490" as="sourcePoint" />
            <mxPoint x="640" y="370" as="targetPoint" />
          </mxGeometry>
        </mxCell>
        <mxCell id="hs5T8lCZRrPNbEUd3X_b-33" value="" style="endArrow=none;html=1;rounded=0;entryX=0.91;entryY=0.996;entryDx=0;entryDy=0;entryPerimeter=0;" parent="WIyWlLk6GJQsqaUBKTNV-1" target="hs5T8lCZRrPNbEUd3X_b-12" edge="1">
          <mxGeometry width="50" height="50" relative="1" as="geometry">
            <mxPoint x="762" y="490" as="sourcePoint" />
            <mxPoint x="640" y="370" as="targetPoint" />
          </mxGeometry>
        </mxCell>
        <mxCell id="hs5T8lCZRrPNbEUd3X_b-34" value="" style="endArrow=none;html=1;rounded=0;entryX=0.858;entryY=0.983;entryDx=0;entryDy=0;entryPerimeter=0;" parent="WIyWlLk6GJQsqaUBKTNV-1" target="hs5T8lCZRrPNbEUd3X_b-13" edge="1">
          <mxGeometry width="50" height="50" relative="1" as="geometry">
            <mxPoint x="740" y="490" as="sourcePoint" />
            <mxPoint x="640" y="370" as="targetPoint" />
          </mxGeometry>
        </mxCell>
        <mxCell id="hs5T8lCZRrPNbEUd3X_b-35" value="" style="endArrow=none;html=1;rounded=0;exitX=1;exitY=0.5;exitDx=0;exitDy=0;" parent="WIyWlLk6GJQsqaUBKTNV-1" source="hs5T8lCZRrPNbEUd3X_b-29" edge="1">
          <mxGeometry width="50" height="50" relative="1" as="geometry">
            <mxPoint x="590" y="420" as="sourcePoint" />
            <mxPoint x="790" y="490" as="targetPoint" />
          </mxGeometry>
        </mxCell>
        <mxCell id="hs5T8lCZRrPNbEUd3X_b-41" value="" style="endArrow=classic;html=1;rounded=0;entryX=0.52;entryY=-0.117;entryDx=0;entryDy=0;entryPerimeter=0;exitX=0.492;exitY=0.7;exitDx=0;exitDy=0;exitPerimeter=0;" parent="WIyWlLk6GJQsqaUBKTNV-1" source="hs5T8lCZRrPNbEUd3X_b-15" target="hs5T8lCZRrPNbEUd3X_b-16" edge="1">
          <mxGeometry width="50" height="50" relative="1" as="geometry">
            <mxPoint x="590" y="420" as="sourcePoint" />
            <mxPoint x="640" y="370" as="targetPoint" />
          </mxGeometry>
        </mxCell>
        <mxCell id="hs5T8lCZRrPNbEUd3X_b-43" value="Y" style="text;html=1;align=center;verticalAlign=middle;whiteSpace=wrap;rounded=0;" parent="WIyWlLk6GJQsqaUBKTNV-1" vertex="1">
          <mxGeometry x="644" y="190" width="26" height="30" as="geometry" />
        </mxCell>
        <mxCell id="hs5T8lCZRrPNbEUd3X_b-44" value="Y" style="text;html=1;align=center;verticalAlign=middle;whiteSpace=wrap;rounded=0;" parent="WIyWlLk6GJQsqaUBKTNV-1" vertex="1">
          <mxGeometry x="644" y="250" width="26" height="30" as="geometry" />
        </mxCell>
        <mxCell id="hs5T8lCZRrPNbEUd3X_b-45" value="Y" style="text;html=1;align=center;verticalAlign=middle;whiteSpace=wrap;rounded=0;" parent="WIyWlLk6GJQsqaUBKTNV-1" vertex="1">
          <mxGeometry x="646" y="310" width="26" height="30" as="geometry" />
        </mxCell>
        <mxCell id="hs5T8lCZRrPNbEUd3X_b-46" value="Y" style="text;html=1;align=center;verticalAlign=middle;whiteSpace=wrap;rounded=0;" parent="WIyWlLk6GJQsqaUBKTNV-1" vertex="1">
          <mxGeometry x="644" y="370" width="26" height="30" as="geometry" />
        </mxCell>
        <mxCell id="hs5T8lCZRrPNbEUd3X_b-47" value="N" style="text;html=1;align=center;verticalAlign=middle;whiteSpace=wrap;rounded=0;" parent="WIyWlLk6GJQsqaUBKTNV-1" vertex="1">
          <mxGeometry x="591" y="235" width="26" height="30" as="geometry" />
        </mxCell>
        <mxCell id="hs5T8lCZRrPNbEUd3X_b-48" value="N" style="text;html=1;align=center;verticalAlign=middle;whiteSpace=wrap;rounded=0;" parent="WIyWlLk6GJQsqaUBKTNV-1" vertex="1">
          <mxGeometry x="591" y="295" width="26" height="30" as="geometry" />
        </mxCell>
        <mxCell id="hs5T8lCZRrPNbEUd3X_b-49" value="N" style="text;html=1;align=center;verticalAlign=middle;whiteSpace=wrap;rounded=0;" parent="WIyWlLk6GJQsqaUBKTNV-1" vertex="1">
          <mxGeometry x="591" y="355" width="26" height="30" as="geometry" />
        </mxCell>
        <mxCell id="hs5T8lCZRrPNbEUd3X_b-50" value="N" style="text;html=1;align=center;verticalAlign=middle;whiteSpace=wrap;rounded=0;" parent="WIyWlLk6GJQsqaUBKTNV-1" vertex="1">
          <mxGeometry x="591" y="416" width="26" height="30" as="geometry" />
        </mxCell>
      </root>
    </mxGraphModel>
  </diagram>
</mxfile>
